HIERARCHY
ROOT hip
{
  OFFSET 0 0 0
  CHANNELS 6 Xposition Yposition Zposition Zrotation Yrotation Xrotation
  JOINT abdomen
  {
    OFFSET 0 20.6881 -0.73152
    CHANNELS 3 Zrotation Xrotation Yrotation
    JOINT chest
    {
      OFFSET 0 11.7043 -0.48768
      CHANNELS 3 Zrotation Xrotation Yrotation
      JOINT neck
      {
        OFFSET 0 22.1894 -2.19456
        CHANNELS 3 Zrotation Xrotation Yrotation
        JOINT head
        {
          OFFSET -0.24384 7.07133 1.2192
          CHANNELS 3 Zrotation Xrotation Yrotation
          JOINT leftEye
          {
            OFFSET 4.14528 8.04674 8.04672
            CHANNELS 3 Zrotation Xrotation Yrotation
            End Site
            {
              OFFSET 1 0 0
            }
          }
          JOINT rightEye
          {
            OFFSET -3.6576 8.04674 8.04672
            CHANNELS 3 Zrotation Xrotation Yrotation
            End Site
            {
              OFFSET 1 0 0
            }
          }
        }
      }
      JOINT rCollar
      {
        OFFSET -2.68224 19.2634 -4.8768
        CHANNELS 3 Zrotation Xrotation Yrotation
        JOINT rShldr
        {
          OFFSET -8.77824 -1.95073 1.46304
          CHANNELS 3 Zrotation Xrotation Yrotation
          JOINT rForeArm
          {
            OFFSET -28.1742 -1.7115 0.48768
            CHANNELS 3 Zrotation Xrotation Yrotation
            JOINT rHand
            {
              OFFSET -22.5879 0.773209 7.07136
              CHANNELS 3 Zrotation Xrotation Yrotation
              JOINT rThumb1
              {
                OFFSET -1.2192 -0.487915 3.41376
                CHANNELS 3 Zrotation Xrotation Yrotation
                JOINT rThumb2
                {
                  OFFSET -3.37035 -0.52449 3.41376
                  CHANNELS 3 Zrotation Xrotation Yrotation
                  End Site
                  {
                    OFFSET -1.78271 -1.18214 1.43049
                  }
                }
              }
              JOINT rIndex1
              {
                OFFSET -7.75947 0.938293 5.60832
                CHANNELS 3 Zrotation Xrotation Yrotation
                JOINT rIndex2
                {
                  OFFSET -2.54057 -0.884171 1.56538
                  CHANNELS 3 Zrotation Xrotation Yrotation
                  End Site
                  {
                    OFFSET -1.62519 -0.234802 1.16502
                  }
                }
              }
              JOINT rMid1
              {
                OFFSET -8.24714 1.18213 3.41376
                CHANNELS 3 Zrotation Xrotation Yrotation
                JOINT rMid2
                {
                  OFFSET -3.10165 -0.590103 1.0647
                  CHANNELS 3 Zrotation Xrotation Yrotation
                  End Site
                  {
                    OFFSET -2.48547 -0.328903 0.83742
                  }
                }
              }
              JOINT rRing1
              {
                OFFSET -8.82822 0.546677 1.51678
                CHANNELS 3 Zrotation Xrotation Yrotation
                JOINT rRing2
                {
                  OFFSET -2.60934 -0.819778 -0.0198488
                  CHANNELS 3 Zrotation Xrotation Yrotation
                  End Site
                  {
                    OFFSET -2.33842 -0.294052 0.168128
                  }
                }
              }
              JOINT rPinky1
              {
                OFFSET -8.27202 -0.0477905 -0.4584
                CHANNELS 3 Zrotation Xrotation Yrotation
                JOINT rPinky2
                {
                  OFFSET -1.82734 -0.647385 -0.700984
                  CHANNELS 3 Zrotation Xrotation Yrotation
                  End Site
                  {
                    OFFSET -1.69225 -0.51767 -0.607171
                  }
                }
              }
            }
          }
        }
      }
      JOINT lCollar
      {
        OFFSET 2.68224 19.2634 -4.8768
        CHANNELS 3 Zrotation Xrotation Yrotation
        JOINT lShldr
        {
          OFFSET 8.77824 -1.95073 1.46304
          CHANNELS 3 Zrotation Xrotation Yrotation
          JOINT lForeArm
          {
            OFFSET 28.1742 -1.7115 0.48768
            CHANNELS 3 Zrotation Xrotation Yrotation
            JOINT lHand
            {
              OFFSET 22.5879 0.773209 7.07136
              CHANNELS 3 Zrotation Xrotation Yrotation
              JOINT lThumb1
              {
                OFFSET 1.2192 -0.487915 3.41376
                CHANNELS 3 Zrotation Xrotation Yrotation
                JOINT lThumb2
                {
                  OFFSET 3.37035 -0.52449 3.41376
                  CHANNELS 3 Zrotation Xrotation Yrotation
                  End Site
                  {
                    OFFSET 1.78271 -1.18214 1.43049
                  }
                }
              }
              JOINT lIndex1
              {
                OFFSET 7.75947 0.938293 5.60832
                CHANNELS 3 Zrotation Xrotation Yrotation
                JOINT lIndex2
                {
                  OFFSET 2.54057 -0.884171 1.56538
                  CHANNELS 3 Zrotation Xrotation Yrotation
                  End Site
                  {
                    OFFSET 1.62519 -0.234802 1.16502
                  }
                }
              }
              JOINT lMid1
              {
                OFFSET 8.24714 1.18213 3.41376
                CHANNELS 3 Zrotation Xrotation Yrotation
                JOINT lMid2
                {
                  OFFSET 3.10165 -0.590103 1.0647
                  CHANNELS 3 Zrotation Xrotation Yrotation
                  End Site
                  {
                    OFFSET 2.48547 -0.328903 0.83742
                  }
                }
              }
              JOINT lRing1
              {
                OFFSET 8.82822 0.546677 1.51678
                CHANNELS 3 Zrotation Xrotation Yrotation
                JOINT lRing2
                {
                  OFFSET 2.60934 -0.819778 -0.0198488
                  CHANNELS 3 Zrotation Xrotation Yrotation
                  End Site
                  {
                    OFFSET 2.33842 -0.294052 0.168128
                  }
                }
              }
              JOINT lPinky1
              {
                OFFSET 8.27202 -0.0477905 -0.4584
                CHANNELS 3 Zrotation Xrotation Yrotation
                JOINT lPinky2
                {
                  OFFSET 1.82734 -0.647385 -0.700984
                  CHANNELS 3 Zrotation Xrotation Yrotation
                  End Site
                  {
                    OFFSET 1.69225 -0.51767 -0.607171
                  }
                }
              }
            }
          }
        }
      }
    }
  }
  JOINT rButtock
  {
    OFFSET -8.77824 4.35084 1.2192
    CHANNELS 3 Zrotation Xrotation Yrotation
    JOINT rThigh
    {
      OFFSET 0 -1.70687 -2.19456
      CHANNELS 3 Zrotation Xrotation Yrotation
      JOINT rShin
      {
        OFFSET 0 -36.8199 0.73152
        CHANNELS 3 Zrotation Xrotation Yrotation
        JOINT rFoot
        {
          OFFSET 0.73152 -45.1104 -5.12064
          CHANNELS 3 Zrotation Xrotation Yrotation
          End Site
          {
            OFFSET -1.1221 -3.69964 12.103
          }
        }
      }
    }
  }
  JOINT lButtock
  {
    OFFSET 8.77824 4.35084 1.2192
    CHANNELS 3 Zrotation Xrotation Yrotation
    JOINT lThigh
    {
      OFFSET 0 -1.70687 -2.19456
      CHANNELS 3 Zrotation Xrotation Yrotation
      JOINT lShin
      {
        OFFSET 0 -36.8199 0.73152
        CHANNELS 3 Zrotation Xrotation Yrotation
        JOINT lFoot
        {
          OFFSET -0.73152 -45.1104 -5.12064
          CHANNELS 3 Zrotation Xrotation Yrotation
          End Site
          {
            OFFSET 1.1221 -3.69964 12.103
          }
        }
      }
    }
  }
}
MOTION
Frames:	4
Frame Time:	0.00833333
39.5709 85.5068 -158.227 0.0 0.0 0.0 2.23594 -0.000458176 0.0604465 0.615848 0.00897727 0.106599 3.34952e-15 -7.95139e-16 7.95139e-16 9.2994e-15 3.18055e-15 2.48326e-15 -0.0 0.0 0.0 -0.0 0.0 0.0 2.03575e-15 -9.24038e-17 5.46658e-16 3.85775e-14 -1.758e-15 1.0138e-14 5.93124e-13 -2.50071e-13 1.78111e-13 6.92018e-12 -1.46877e-13 1.70478e-12 1.62837e-11 -8.65384e-13 4.09973e-12 2.81042e-11 -1.49804e-12 7.06481e-12 1.62872e-11 -8.64713e-13 4.08383e-12 7.73091 5.47488 0.417314 1.6283e-11 -8.65707e-13 4.09019e-12 2.90554 0.965183 0.102902 1.62908e-11 -8.65608e-13 4.0894e-12 10.2786 0.731801 0.0259123 1.62844e-11 -8.62725e-13 4.08701e-12 2.22167 -0.733487 -0.20892 2.03943e-15 -8.69683e-17 3.47873e-16 3.22125e-14 -1.67103e-15 7.95139e-15 6.05051e-13 1.2106e-13 1.43125e-13 6.85272e-12 -5.13635e-13 1.74294e-12 1.61821e-11 -8.55246e-13 4.08383e-12 2.79567e-11 -1.47896e-12 7.05845e-12 1.61767e-11 -8.56364e-13 4.09655e-12 -7.73091 5.47488 -0.417314 1.61815e-11 -8.55669e-13 4.08701e-12 -2.90554 0.965183 -0.102902 1.6177e-11 -8.55271e-13 4.09178e-12 -10.2786 0.731801 -0.0259123 1.619e-11 -8.53184e-13 4.08383e-12 -2.22167 -0.733487 0.20892 -2.03217e-16 0.0 -3.88251e-19 2.2119 -7.80167 -0.224263 0.00521963 8.55964 0.135863 -0.548991 -0.76657 0.0462534 2.03217e-16 0.0 3.88251e-19 1.1843 -1.92859 -0.00254725 0.00908846 -2.07858 0.0749585 0.51337 3.99847 -0.140515
40.1911 83.9754 -169.978 -177.986 -1.9106 -172.752 0.932039 -1.89713 0.0841974 0.492221 1.24126 0.115026 -1.11851 5.43067 0.817379 1.24298 -5.06747 1.39688 -0.0 0.0 0.0 -0.0 0.0 0.0 -2.00203e-14 -7.54286e-14 -2.96197e-15 21.5788 8.23844 -1.15866 -3.42192 -1.4241 5.47826 0.000667723 0.589161 0.0827872 4.39691e-11 -3.29131e-10 6.10094e-10 7.82843e-11 -5.6981e-10 1.05418e-09 4.39767e-11 -3.29131e-10 6.1008e-10 7.73091 5.47488 0.417314 4.3971e-11 -3.29129e-10 6.10088e-10 2.90554 0.965183 0.102902 4.39764e-11 -3.29128e-10 6.10085e-10 10.2786 0.731801 0.0259123 4.39691e-11 -3.29127e-10 6.10085e-10 2.22167 -0.733487 -0.20892 -2.0054e-14 -7.54241e-14 -3.19026e-15 -18.4908 8.53931 -2.71869 3.87399 -1.6966 -6.11807 -0.0373724 -4.29048 0.596896 2.04418e-10 -1.34626e-10 -2.92069e-10 3.54777e-10 -2.30958e-10 -5.01885e-10 2.04413e-10 -1.34627e-10 -2.92057e-10 -7.73091 5.47488 -0.417314 2.04418e-10 -1.34627e-10 -2.92068e-10 -2.90554 0.965183 -0.102902 2.04412e-10 -1.34627e-10 -2.92064e-10 -10.2786 0.731801 -0.0259123 2.04425e-10 -1.34625e-10 -2.92073e-10 -2.22167 -0.733487 0.20892 -2.03217e-16 0.0 -3.88251e-19 3.10967 -9.85168 1.26243 0.0268645 13.0119 0.210735 -0.726149 -2.84883 -1.94462 2.03217e-16 0.0 3.88251e-19 2.14399 -6.75705 3.15961 0.00689875 5.24425 -0.0487639 0.288182 3.08289 -5.92424
40.1696 83.8387 -170.081 -177.94 -1.9547 -172.884 -0.455678 -3.92057 0.0998761 0.366418 2.54761 0.12097 -2.47524 11.1635 1.70456 2.83924 -10.3701 2.90167 -0.0 0.0 0.0 -0.0 0.0 0.0 -4.36866e-14 -1.59392e-13 -6.95436e-15 44.7694 16.9635 -2.45686 -6.74685 -2.8875 11.2838 -0.000493104 1.19627 0.168127 6.88326e-11 -6.87222e-10 1.28107e-09 1.23869e-10 -1.18978e-09 2.21362e-09 6.88447e-11 -6.87223e-10 1.28106e-09 7.73091 5.47488 0.417314 6.88373e-11 -6.87218e-10 1.28107e-09 2.90554 0.965183 0.102902 6.88402e-11 -6.87217e-10 1.28106e-09 10.2786 0.731801 0.0259123 6.88318e-11 -6.87217e-10 1.28106e-09 2.22167 -0.733487 -0.20892 -4.37629e-14 -1.59388e-13 -7.21526e-15 -37.1005 17.5205 -5.80434 7.57294 -3.42236 -12.5953 0.0213649 -8.82199 1.23877 3.98192e-10 -2.9782e-10 -6.1758e-10 6.91296e-10 -5.11134e-10 -1.06141e-09 3.98187e-10 -2.97822e-10 -6.17569e-10 -7.73091 5.47488 -0.417314 3.98193e-10 -2.97823e-10 -6.17581e-10 -2.90554 0.965183 -0.102902 3.98185e-10 -2.97823e-10 -6.17579e-10 -10.2786 0.731801 -0.0259123 3.98199e-10 -2.97822e-10 -6.1759e-10 -2.22167 -0.733487 0.20892 -2.03217e-16 0.0 -3.88251e-19 4.16747 -12.0358 2.84839 0.0368403 17.6933 0.293891 -1.0668 -5.00383 -4.05057 2.03217e-16 0.0 3.88251e-19 3.74692 -11.8632 6.59142 0.0396674 13.0079 -0.183947 -0.154253 2.08327 -12.0295
40.1473 83.6862 -170.176 -177.898 -2.0163 -173.029 -1.67101 -5.69048 0.132212 0.243871 3.70583 0.132074 -3.83674 16.2785 2.54315 4.49221 -15.1656 4.32517 -0.0 0.0 0.0 -0.0 0.0 0.0 -6.41324e-14 -2.26101e-13 -9.97922e-15 65.8207 24.6728 -3.78618 -9.45944 -4.11634 16.4734 -0.00310659 1.76747 0.248467 9.93399e-11 -9.85661e-10 1.82208e-09 1.78645e-10 -1.70643e-09 3.14842e-09 9.93556e-11 -9.85662e-10 1.82207e-09 7.73091 5.47488 0.417314 9.93468e-11 -9.85655e-10 1.82208e-09 2.90554 0.965183 0.102902 9.93477e-11 -9.85653e-10 1.82208e-09 10.2786 0.731801 0.0259123 9.93385e-11 -9.85655e-10 1.82208e-09 2.22167 -0.733487 -0.20892 -6.42409e-14 -2.26098e-13 -1.02665e-14 -52.8304 25.3746 -8.93351 10.5524 -4.85812 -18.4147 0.161897 -12.8658 1.83167 5.80889e-10 -4.02166e-10 -8.84374e-10 1.00842e-09 -6.89916e-10 -1.51977e-09 5.80884e-10 -4.02167e-10 -8.84364e-10 -7.73091 5.47488 -0.417314 5.80891e-10 -4.02169e-10 -8.84377e-10 -2.90554 0.965183 -0.102902 5.80881e-10 -4.02169e-10 -8.84376e-10 -10.2786 0.731801 -0.0259123 5.80895e-10 -4.02169e-10 -8.84388e-10 -2.22167 -0.733487 0.20892 -2.03217e-16 0.0 -3.88251e-19 5.23314 -13.9208 4.30241 0.0323359 21.9162 0.374324 -1.51653 -6.98067 -5.96351 2.03217e-16 0.0 3.88251e-19 5.71198 -16.2167 9.81204 0.101495 19.8896 -0.314243 -0.711196 1.24128 -17.4708
